HIERARCHY
ROOT Hips
{
    OFFSET   0.000000   0.000000   0.000000
    CHANNELS 6 Xposition Yposition Zposition Zrotation Xrotation Yrotation
    JOINT Chest
    {
        OFFSET   0.000000   8.007230   0.000000
        CHANNELS 3 Zrotation Xrotation Yrotation
        JOINT Chest2
        {
            OFFSET   0.000000  22.077100   0.000000
            CHANNELS 3 Zrotation Xrotation Yrotation
            JOINT Neck
            {
                OFFSET   0.000000  23.255100   0.000000
                CHANNELS 3 Zrotation Xrotation Yrotation
                JOINT Head
                {
                    OFFSET   0.000000  14.370100   1.956600
                    CHANNELS 3 Zrotation Xrotation Yrotation
                    End Site
                    {
                        OFFSET   0.000000  19.566000   0.000000
                    }
                }
            }
            JOINT LeftCollar
            {
                OFFSET   3.911900  19.017000  -0.467063
                CHANNELS 3 Zrotation Xrotation Yrotation
                JOINT LeftShoulder
                {
                    OFFSET  10.383700   0.000000   0.000000
                    CHANNELS 3 Zrotation Xrotation Yrotation
                    JOINT LeftElbow
                    {
                        OFFSET  26.662100   0.001193   0.000980
                        CHANNELS 3 Zrotation Xrotation Yrotation
                        JOINT LeftWrist
                        {
                            OFFSET  28.869000  -0.000059  -0.000082
                            CHANNELS 3 Zrotation Xrotation Yrotation
                            JOINT LeftFinger0
                            {
                                OFFSET   2.044650  -2.323450   3.252850
                                CHANNELS 3 Zrotation Xrotation Yrotation
                                JOINT LeftFinger01
                                {
                                    OFFSET   3.088130   0.000000   0.000000
                                    CHANNELS 3 Zrotation Xrotation Yrotation
                                    JOINT LeftFinger02
                                    {
                                        OFFSET   2.639460   0.000000   0.000000
                                        CHANNELS 3 Zrotation Xrotation Yrotation
                                        End Site
                                        {
                                            OFFSET   2.582190   0.000000   0.000000
                                        }
                                    }
                                }
                            }
                            JOINT LeftFinger1
                            {
                                OFFSET   8.364480   0.000000   3.252850
                                CHANNELS 3 Zrotation Xrotation Yrotation
                                JOINT LeftFinger11
                                {
                                    OFFSET   4.646930   0.000000   0.000000
                                    CHANNELS 3 Zrotation Xrotation Yrotation
                                    JOINT LeftFinger12
                                    {
                                        OFFSET   2.323470   0.000000   0.000000
                                        CHANNELS 3 Zrotation Xrotation Yrotation
                                        End Site
                                        {
                                            OFFSET   2.273050   0.000000   0.000000
                                        }
                                    }
                                }
                            }
                            JOINT LeftFinger2
                            {
                                OFFSET   8.364490   0.000016   1.078090
                                CHANNELS 3 Zrotation Xrotation Yrotation
                                JOINT LeftFinger21
                                {
                                    OFFSET   5.111610   0.000000   0.000000
                                    CHANNELS 3 Zrotation Xrotation Yrotation
                                    JOINT LeftFinger22
                                    {
                                        OFFSET   2.788150   0.000016   0.000000
                                        CHANNELS 3 Zrotation Xrotation Yrotation
                                        End Site
                                        {
                                            OFFSET   2.727660   0.000000   0.000000
                                        }
                                    }
                                }
                            }
                            JOINT LeftFinger3
                            {
                                OFFSET   7.899780   0.000015  -1.078090
                                CHANNELS 3 Zrotation Xrotation Yrotation
                                JOINT LeftFinger31
                                {
                                    OFFSET   4.646930   0.000000   0.000000
                                    CHANNELS 3 Zrotation Xrotation Yrotation
                                    JOINT LeftFinger32
                                    {
                                        OFFSET   2.323470   0.000000   0.000000
                                        CHANNELS 3 Zrotation Xrotation Yrotation
                                        End Site
                                        {
                                            OFFSET   2.273050   0.000000   0.000000
                                        }
                                    }
                                }
                            }
                            JOINT LeftFinger4
                            {
                                OFFSET   7.435090   0.000000  -3.252850
                                CHANNELS 3 Zrotation Xrotation Yrotation
                                JOINT LeftFinger41
                                {
                                    OFFSET   3.717550   0.000000   0.000000
                                    CHANNELS 3 Zrotation Xrotation Yrotation
                                    JOINT LeftFinger42
                                    {
                                        OFFSET   1.858770   0.000000   0.000000
                                        CHANNELS 3 Zrotation Xrotation Yrotation
                                        End Site
                                        {
                                            OFFSET   1.818440   0.000000   0.000000
                                        }
                                    }
                                }
                            }
                        }
                    }
                }
            }
            JOINT RightCollar
            {
                OFFSET  -3.911910  19.017000  -0.467062
                CHANNELS 3 Zrotation Xrotation Yrotation
                JOINT RightShoulder
                {
                    OFFSET -10.383700   0.000014   0.000000
                    CHANNELS 3 Zrotation Xrotation Yrotation
                    JOINT RightElbow
                    {
                        OFFSET -26.662100   0.001225   0.001091
                        CHANNELS 3 Zrotation Xrotation Yrotation
                        JOINT RightWrist
                        {
                            OFFSET -28.869000  -0.000020  -0.000085
                            CHANNELS 3 Zrotation Xrotation Yrotation
                            JOINT RightFinger0
                            {
                                OFFSET  -2.044650  -2.323490   3.252850
                                CHANNELS 3 Zrotation Xrotation Yrotation
                                JOINT RightFinger01
                                {
                                    OFFSET  -3.088130   0.000000   0.000000
                                    CHANNELS 3 Zrotation Xrotation Yrotation
                                    JOINT RightFinger02
                                    {
                                        OFFSET  -2.639460   0.000000   0.000000
                                        CHANNELS 3 Zrotation Xrotation Yrotation
                                        End Site
                                        {
                                            OFFSET  -2.582190   0.000000   0.000000
                                        }
                                    }
                                }
                            }
                            JOINT RightFinger1
                            {
                                OFFSET  -8.364480   0.000000   3.252850
                                CHANNELS 3 Zrotation Xrotation Yrotation
                                JOINT RightFinger11
                                {
                                    OFFSET  -4.646930   0.000000   0.000000
                                    CHANNELS 3 Zrotation Xrotation Yrotation
                                    JOINT RightFinger12
                                    {
                                        OFFSET  -2.323470   0.000000   0.000000
                                        CHANNELS 3 Zrotation Xrotation Yrotation
                                        End Site
                                        {
                                            OFFSET  -2.273050   0.000000   0.000000
                                        }
                                    }
                                }
                            }
                            JOINT RightFinger2
                            {
                                OFFSET  -8.364480   0.000000   1.078090
                                CHANNELS 3 Zrotation Xrotation Yrotation
                                JOINT RightFinger21
                                {
                                    OFFSET  -5.111620   0.000000   0.000000
                                    CHANNELS 3 Zrotation Xrotation Yrotation
                                    JOINT RightFinger22
                                    {
                                        OFFSET  -2.788160   0.000000   0.000000
                                        CHANNELS 3 Zrotation Xrotation Yrotation
                                        End Site
                                        {
                                            OFFSET  -2.727660   0.000000   0.000000
                                        }
                                    }
                                }
                            }
                            JOINT RightFinger3
                            {
                                OFFSET  -7.899780   0.000000  -1.078090
                                CHANNELS 3 Zrotation Xrotation Yrotation
                                JOINT RightFinger31
                                {
                                    OFFSET  -4.646930   0.000000   0.000000
                                    CHANNELS 3 Zrotation Xrotation Yrotation
                                    JOINT RightFinger32
                                    {
                                        OFFSET  -2.323470   0.000000   0.000000
                                        CHANNELS 3 Zrotation Xrotation Yrotation
                                        End Site
                                        {
                                            OFFSET  -2.273050   0.000000   0.000000
                                        }
                                    }
                                }
                            }
                            JOINT RightFinger4
                            {
                                OFFSET  -7.435090   0.000000  -3.252850
                                CHANNELS 3 Zrotation Xrotation Yrotation
                                JOINT RightFinger41
                                {
                                    OFFSET  -3.717550   0.000000   0.000000
                                    CHANNELS 3 Zrotation Xrotation Yrotation
                                    JOINT RightFinger42
                                    {
                                        OFFSET  -1.858760   0.000000   0.000000
                                        CHANNELS 3 Zrotation Xrotation Yrotation
                                        End Site
                                        {
                                            OFFSET  -1.818440   0.000000   0.000000
                                        }
                                    }
                                }
                            }
                        }
                    }
                }
            }
        }
    }
    JOINT LeftHip
    {
        OFFSET   9.783030   0.000000   0.000000
        CHANNELS 3 Zrotation Xrotation Yrotation
        JOINT LeftKnee
        {
            OFFSET   0.000063 -41.789100   0.000608
            CHANNELS 3 Zrotation Xrotation Yrotation
            JOINT LeftAnkle
            {
                OFFSET   0.000048 -41.133200  -0.000184
                CHANNELS 3 Zrotation Xrotation Yrotation
                JOINT LeftToe
                {
                    OFFSET   0.000000  -6.358960  14.674500
                    CHANNELS 3 Zrotation Xrotation Yrotation
                    End Site
                    {
                        OFFSET   0.000000   0.000000   3.913200
                    }
                }
            }
        }
    }
    JOINT RightHip
    {
        OFFSET  -9.783030   0.000000   0.000000
        CHANNELS 3 Zrotation Xrotation Yrotation
        JOINT RightKnee
        {
            OFFSET   0.000071 -41.789100   0.001239
            CHANNELS 3 Zrotation Xrotation Yrotation
            JOINT RightAnkle
            {
                OFFSET   0.000037 -41.133200  -0.000166
                CHANNELS 3 Zrotation Xrotation Yrotation
                JOINT RightToe
                {
                    OFFSET   0.000000  -6.358960  14.674500
                    CHANNELS 3 Zrotation Xrotation Yrotation
                    End Site
                    {
                        OFFSET   0.000000   0.000000   3.913200
                    }
                }
            }
        }
    }
}
MOTION
Frames: 6
Frame Time:   0.016667
  1.349240  89.502900   0.003713  -0.863652   0.786333   0.367059   1.254000  -0.255886  -1.197680   2.502420  -0.537866  -2.389510  -1.870970   2.007550   0.077471  -3.084470   4.057640   5.888760  -4.098400   5.422200  10.951600 -81.157400   4.552630   2.685820  -0.091111   4.302390 -13.201200   6.831670  -5.805630  -4.324040  35.585500  23.586100 -49.475800 -32.510000   0.001223   0.002942 -11.255000  -0.000976   0.006541 -21.230600  -0.944474   2.429390 -17.386800   0.012694   0.002708 -12.170800   0.001359  -0.000283 -25.170000  -3.736470   7.894690 -25.427900   0.000261  -0.004883 -16.934900  -0.000060  -0.005715 -19.796700  -2.976900   8.209590 -20.010300   0.000146  -0.002837 -13.326900  -0.006120  -0.002454 -21.437500  -3.211940   8.121060 -32.498200   0.002533  -0.000265 -21.643900   0.001145   0.000516   5.408210   6.481250   6.783920  73.420900  -7.312570  -2.657250   3.489250  -5.064500  12.634300 -16.212300  -0.713521   5.498200 -50.620000  46.648200  92.784100  22.354700   0.007432  -0.017216   6.177370   0.006067  -0.016427  24.515600  -0.362963  -0.792749  20.062300   0.003307  -0.006452  14.043600   0.003337  -0.008035  25.396200  -1.790380  -3.763800  25.457300   0.000499  -0.007714  16.954600   0.000000  -0.002624  25.626700  -3.033170  -6.291620  25.796700   0.003923  -0.008703  17.180600   0.006326  -0.004785  29.046700  -3.558760  -6.375430  43.870400   0.009826   0.000077  29.217700  -0.001580  -0.005689   2.895060   0.913169   0.208183  -0.005924   0.549881  12.144600  -3.201690  -2.475320   0.795911   0.000000   0.000000  -0.000000  -2.157080   1.331660  -5.777390   1.629060   0.894225 -13.213800   0.884140  -2.057650  -1.138080   0.000000   0.000000   0.000000
  1.340210  89.506100  -0.000875  -0.863556   0.777313   0.364212   1.254970  -0.223834  -1.193880   2.505480  -0.473709  -2.382600  -1.882790   2.021600   0.077469  -3.103810   4.085830   5.900830  -4.134220   5.413370  10.980600 -81.237200   4.639110   2.628220  -0.191632   3.866810 -13.326500   6.871380  -5.514030  -4.300960  35.686500  23.690600 -49.512100 -32.375600   0.001154   0.002948 -11.187800  -0.000972   0.006542 -21.251800  -0.942563   2.421860 -17.404400   0.012703   0.002708 -12.183200   0.001351  -0.000297 -25.238400  -3.797980   7.978610 -25.503900   0.000260  -0.004904 -16.985500  -0.000060  -0.005720 -19.818100  -3.020020   8.302720 -20.037600   0.000147  -0.002837 -13.345100  -0.006116  -0.002454 -21.453200  -3.256360   8.213450 -32.530900   0.002533  -0.000267 -21.665600   0.001144   0.000516   5.439950   6.364550   6.832960  73.490000  -7.320660  -2.849530   3.455520  -4.837340  13.051300 -16.377900  -0.336511   5.480010 -50.812000  46.805700  93.067800  22.195200   0.008545  -0.017214   6.097630   0.006021  -0.016487  24.560000  -0.333298  -0.724676  20.099800   0.003307  -0.006428  14.069800   0.003335  -0.008040  25.418400  -1.756440  -3.688730  25.478700   0.000468  -0.007689  16.968800   0.000000  -0.002600  25.687600  -2.982240  -6.169590  25.853300   0.003900  -0.008698  17.218300   0.006325  -0.004776  29.091800  -3.526910  -6.306320  43.934700   0.009816   0.000146  29.260500  -0.001582  -0.005662   2.901540   0.918949   0.208951  -0.005955   0.561958  12.144600  -3.202350  -2.479860   0.795675  -0.000000   0.000000   0.000000  -2.156200   1.348100  -5.770100   1.650750   0.873926 -13.203100   0.859309  -2.047370  -1.149880  -0.000000   0.000000   0.000000
  1.324850  89.511900  -0.011206  -0.863240   0.754534   0.351204   1.258340  -0.159959  -1.184630   2.513120  -0.345858  -2.365470  -1.903350   2.035650   0.077450  -3.137890   4.113930   5.925990  -4.207270   5.400910  11.029400 -81.374100   4.725770   2.523390  -0.374964   3.231280 -13.657700   7.028400  -4.898270  -4.275860  35.897100  23.969400 -49.639400 -32.169200   0.001058   0.002954 -11.084600  -0.000968   0.006547 -21.331200  -0.929188   2.369130 -17.469800   0.012726   0.002705 -12.228900   0.001333  -0.000327 -25.395500  -3.859450   8.062550 -25.668800   0.000257  -0.004957 -17.095400  -0.000061  -0.005734 -19.889000  -3.063110   8.395870 -20.115000   0.000149  -0.002837 -13.396600  -0.006108  -0.002454 -21.511200  -3.300750   8.305860 -32.628200   0.002532  -0.000270 -21.730400   0.001144   0.000515   5.495200   6.166730   6.921160  73.592500  -7.383060  -3.206950   3.408150  -4.405040  13.943900 -16.683700   0.438025   5.462220 -51.043100  47.072100  93.538800  21.709200   0.010453  -0.017201   5.854630   0.005927  -0.016605  24.654100  -0.234178  -0.505374  20.177200   0.003310  -0.006372  14.124000   0.003334  -0.008052  25.458900  -1.660050  -3.480010  25.514300   0.000406  -0.007629  16.992500   0.000000  -0.002546  25.793200  -2.853930  -5.877920  25.945900   0.003846  -0.008684  17.280000   0.006325  -0.004755  29.174800  -3.425770  -6.105840  44.043900   0.009788   0.000215  29.333300  -0.001590  -0.005605   2.915050   0.941943   0.214331  -0.005984   0.574035  12.144500  -3.203480  -2.486100   0.795440   0.000000   0.000000   0.000000  -2.153910   1.380480  -5.754760   1.685690   0.844757 -13.180000   0.819837  -2.032440  -1.169070   0.000000   0.000000   0.000000
  1.312250  89.517400  -0.026290  -0.865677   0.723231   0.327290   1.265540  -0.086547  -1.171190   2.528620  -0.198921  -2.340190  -1.921860   2.021340   0.077313  -3.168480   4.084770   5.952310  -4.298340   5.396190  11.067600 -81.501100   4.667340   2.392270  -0.612933   2.868270 -14.146000   7.470640  -4.093480  -4.302130  36.096500  24.400300 -50.073400 -32.041000   0.001020   0.002951 -11.020500  -0.000968   0.006560 -21.483100  -0.854064   2.156880 -17.591800   0.012761   0.002701 -12.314300   0.001307  -0.000369 -25.614900  -3.838090   7.957250 -25.883200   0.000251  -0.005037 -17.238200  -0.000062  -0.005753 -20.026800  -3.043220   8.292500 -20.249000   0.000150  -0.002834 -13.485800  -0.006094  -0.002453 -21.625300  -3.275070   8.204210 -32.792800   0.002531  -0.000272 -21.840000   0.001143   0.000513   5.554750   5.990810   7.011930  73.645700  -7.575850  -3.582740   3.483670  -3.963250  15.061800 -17.063300   1.423810   5.649760 -51.034600  47.310600  93.925000  20.797300   0.012104  -0.016383   5.398680   0.005794  -0.016748  24.779600  -0.041538  -0.087698  20.278100   0.003315  -0.006291  14.194700   0.003335  -0.008072  25.493200  -1.488870  -3.115950  25.537400   0.000317  -0.007544  17.007900   0.000000  -0.002470  25.884700  -2.646440  -5.431310  26.014800   0.003764  -0.008661  17.325900   0.006323  -0.004726  29.269300  -3.230290  -5.740970  44.153200   0.009743   0.000198  29.406100  -0.001602  -0.005527   2.930620   0.985941   0.237659  -0.010923   0.564019  12.136200  -3.203740  -2.487300   0.800998   0.000000   0.000000   0.000000  -2.148390   1.415530  -5.737250   1.712330   0.829560 -13.148500   0.791637  -2.025390  -1.186880  -0.000000   0.000000   0.000000
  1.298650  89.522900  -0.042224  -0.872349   0.676261   0.285771   1.275540  -0.001310  -1.154070   2.550780  -0.028307  -2.307830  -1.940990   1.995900   0.077116  -3.199740   4.033100   5.993230  -4.396300   5.393250  11.110100 -81.615900   4.517380   2.308080  -0.866848   2.700590 -14.841600   8.001610  -3.212100  -4.417890  36.246800  24.777600 -50.643200 -31.934100   0.001009   0.002947 -10.967100  -0.000968   0.006575 -21.703400  -0.738462   1.849190 -17.768400   0.012807   0.002695 -12.437900   0.001277  -0.000415 -25.884400  -3.788350   7.748410 -26.139000   0.000244  -0.005133 -17.408600  -0.000065  -0.005776 -20.196900  -2.997640   8.086250 -20.410300   0.000152  -0.002832 -13.593200  -0.006077  -0.002452 -21.783300  -3.221360   8.000200 -33.015000   0.002528  -0.000275 -21.988000   0.001143   0.000509   5.595460   5.832140   7.097090  73.675800  -7.840320  -3.980090   3.607680  -3.426080  16.438000 -17.364400   2.463640   6.112100 -50.919400  47.528500  94.263900  19.742600   0.013782  -0.014111   4.871300   0.005681  -0.016889  24.906200   0.192719   0.417062  20.381100   0.003322  -0.006198  14.266800   0.003335  -0.008094  25.538400  -1.290350  -2.694850  25.571200   0.000239  -0.007447  17.030400   0.000000  -0.002385  25.977200  -2.413280  -4.934920  26.084300   0.003665  -0.008634  17.372100   0.006322  -0.004691  29.344300  -3.003610  -5.324980  44.229700   0.009686   0.000080  29.457000  -0.001617  -0.005444   2.950550   1.050880   0.280560  -0.020183   0.548349  12.128100  -3.204850  -2.488940   0.811408   0.000000   0.000000  -0.000000  -2.138030   1.459180  -5.713060   1.735070   0.823282 -13.114300   0.766972  -2.020530  -1.197280  -0.000000   0.000000   0.000000
  1.282280  89.527300  -0.056381  -0.882718   0.608799   0.219124   1.286820   0.090906  -1.131660   2.575200   0.156360  -2.265090  -1.959030   1.965690   0.076931  -3.228740   3.972000   6.051730  -4.482640   5.389180  11.157900 -81.677200   4.290160   2.312810  -0.952045   3.078000 -15.771600   8.388310  -2.446100  -4.661130  36.273100  24.880200 -51.117400 -31.876200   0.001201   0.002952 -10.938100  -0.000975   0.006590 -22.023500  -0.621430   1.533060 -18.026800   0.012861   0.002688 -12.618800   0.001247  -0.000459 -26.200100  -3.695850   7.473580 -26.396800   0.000235  -0.005234 -17.580300  -0.000068  -0.005798 -20.369800  -2.914550   7.809250 -20.568900   0.000154  -0.002830 -13.698800  -0.006060  -0.002449 -21.988600  -3.134680   7.724400 -33.300400   0.002525  -0.000279 -22.178100   0.001142   0.000507   5.594460   5.723220   7.144350  73.697900  -8.121200  -4.352420   3.671350  -2.774970  18.038100 -17.494800   3.351960   6.814730 -50.772400  47.704200  94.513800  18.831800   0.015466  -0.009063   4.415870   0.005649  -0.016997  24.992200   0.430145   0.925061  20.452400   0.003333  -0.006103  14.316700   0.003335  -0.008117  25.612100  -1.101080  -2.292540  25.635300   0.000213  -0.007350  17.073100   0.000000  -0.002305  26.067500  -2.206220  -4.495700  26.155800   0.003560  -0.008605  17.419700   0.006322  -0.004654  29.379700  -2.794360  -4.948240  44.244000   0.009621  -0.001045  29.466400  -0.001636  -0.005365   2.976740   1.134230   0.341928  -0.029713   0.541720  12.128200  -3.209530  -2.497400   0.822645   0.000000   0.000000   0.000000  -2.123370   1.508860  -5.677410   1.752370   0.833908 -13.087800   0.747760  -2.017570  -1.187850   0.000000   0.000000  -0.000000
